<svg width="24" height="24" fill="none" xmlns="http://www.w3.org/2000/svg"><g clip-path="url(#clip0)" fill="#F90"><path d="M9.817 2.658c.267.088.52.201.752.336a.384.384 0 00.528-.14.387.387 0 00-.14-.53 4.77 4.77 0 00-.898-.4.387.387 0 00-.242.734zm2.621 4.138a7.98 7.98 0 01-.199 1.752.387.387 0 10.754.17 8.757 8.757 0 00.218-1.922c0-1.35-.33-2.474-.979-3.341a.387.387 0 10-.619.463c.548.73.825 1.7.825 2.878zM6.856 12.7c-.961-.656-1.82-1.913-2.298-3.362a.387.387 0 00-.734.242c.537 1.63 1.484 2.999 2.596 3.758a.385.385 0 00.537-.102.387.387 0 00-.101-.537z"/><path d="M20.354 6.313c-1.177-1.146-2.826-1.777-4.643-1.777-.383 0-.762.028-1.13.083-.308-1.113-.863-2.076-1.649-2.842C11.755.631 10.106 0 8.29 0 6.472 0 4.823.631 3.646 1.777c-1.262 1.23-1.928 2.965-1.928 5.02 0 2.092.685 4.27 1.881 5.976 1.02 1.453 2.277 2.389 3.62 2.715-.09.169-.141.362-.141.567v.825c0 .213.173.386.386.386h.416a2.394 2.394 0 01-.16.577c-.107.288-.23.615-.23 1.235 0 .62.123.947.23 1.235.098.26.182.485.182.964 0 .48-.084.705-.181.964-.108.289-.23.616-.23 1.236a.387.387 0 10.772 0c0-.48.084-.704.182-.964.108-.289.23-.616.23-1.236s-.122-.947-.23-1.235a2.324 2.324 0 01-.182-.964c0-.48.084-.704.182-.963a3.05 3.05 0 00.212-.849h.457a.387.387 0 00.386-.386v-.825c0-.205-.051-.398-.141-.567.195-.048.388-.108.579-.18 1.015 2.497 2.776 4.236 4.705 4.712-.091.17-.143.365-.143.57v.826c0 .213.173.386.386.386h.416a2.357 2.357 0 01-.16.577c-.107.288-.23.615-.23 1.234a.387.387 0 10.773 0c0-.479.084-.703.182-.963.083-.221.174-.466.212-.848h.457a.387.387 0 00.386-.386v-.825c0-.205-.051-.398-.142-.568 1.344-.326 2.601-1.261 3.62-2.715 1.197-1.705 1.882-3.883 1.882-5.976 0-2.055-.666-3.79-1.928-5.019zM4.232 12.33a9.855 9.855 0 01-1.741-5.533c0-1.84.586-3.385 1.694-4.465C5.217 1.326 6.675.773 8.29.773c1.615 0 3.072.553 4.104 1.558 1.108 1.08 1.694 2.624 1.694 4.465a9.855 9.855 0 01-1.741 5.532c-1.137 1.623-2.578 2.516-4.057 2.516-1.479 0-2.92-.893-4.057-2.515zm4.495 3.726v.438h-.876v-.438a.439.439 0 01.876 0zm7.422 4.536v.438h-.876v-.438a.439.439 0 01.876 0zm3.619-3.727c-1.137 1.622-2.578 2.515-4.057 2.515-1.042 0-2.085-.454-3.016-1.313-.837-.772-1.562-1.863-2.056-3.088.252-.141.498-.305.738-.491.553 1.465 1.438 2.686 2.465 3.386a.385.385 0 00.537-.101.387.387 0 00-.101-.537c-.947-.646-1.794-1.875-2.277-3.297.345-.34.672-.73.978-1.165a10.648 10.648 0 001.882-5.977c0-.492-.04-.966-.115-1.42a6.82 6.82 0 01.965-.067c1.615 0 3.072.553 4.104 1.558 1.108 1.08 1.694 2.624 1.694 4.465a9.854 9.854 0 01-1.741 5.532z"/><path d="M19.654 7.99a.387.387 0 10-.619.464c.547.73.825 1.699.825 2.878 0 .577-.067 1.166-.199 1.752a.386.386 0 10.754.17 8.758 8.758 0 00.218-1.922c0-1.35-.33-2.474-.979-3.342zm-1.275-1.13a4.768 4.768 0 00-.898-.4.387.387 0 00-.242.734c.267.088.52.2.752.335a.385.385 0 00.528-.14.386.386 0 00-.14-.529z"/></g><defs><clipPath id="clip0"><path fill="#fff" d="M0 0h24v24H0z"/></clipPath></defs></svg>