<svg width="23" height="24" fill="none" xmlns="http://www.w3.org/2000/svg"><g clip-path="url(#clip0)" fill="#F90"><path d="M21.981 13.913c-.469-.357-1.13-.545-1.913-.545-.636 0-1.202.117-1.663.328a6.752 6.752 0 00-.385-.434 5.04 5.04 0 00.694-2.543c0-1.253-.469-2.41-1.258-3.342.296-.243.601-.311 1.034-.045a3.235 3.235 0 01.63.534c.715.74.636 1.124.441 1.428l-.007.012a1.484 1.484 0 01-.093.124.35.35 0 00.538.448c.057-.069.106-.136.15-.204 0 0 0-.002.002-.003 0 0 0-.002.002-.003a1.692 1.692 0 00.14-.272c.368-.905-.331-1.675-.681-2.03l-.02-.019-.011-.012-.028-.027c-.358-.36-1.418-1.418-2.582-.436-1.141-1.059-2.748-1.719-4.524-1.719-1.777 0-3.383.66-4.525 1.719-1.163-.982-2.223.077-2.581.436-.375.374-1.515 1.515-.292 2.738.356.356.736.544 1.132.562l-.001.11c0 .899.244 1.768.693 2.544a6.68 6.68 0 00-.384.434c-.462-.21-1.027-.328-1.663-.328-.318 0-.616.031-.889.092V8.19a.738.738 0 00.642-.373.738.738 0 000-.745l-.019-.033a3.6 3.6 0 002.614-3.452A3.59 3.59 0 003.587 0 3.567 3.567 0 00.76 1.38a.35.35 0 10.551.43A2.871 2.871 0 013.587.7a2.89 2.89 0 012.887 2.887 2.896 2.896 0 01-2.282 2.822.736.736 0 00-.605-.309.736.736 0 00-.604.31A2.896 2.896 0 01.735 3.138a.35.35 0 10-.692-.108 3.6 3.6 0 002.57 4.009l-.018.032a.738.738 0 000 .746.738.738 0 00.642.372v5.52c-.116.06-.225.128-.324.203-.5.38-.763.928-.763 1.584s.264 1.204.763 1.584c.468.357 1.13.545 1.913.545.1 0 .2-.003.296-.009.006.258.03.516.07.77-.907.653-1.499 1.936-1.499 3.12C3.693 23.068 4.732 24 6.472 24c1.025 0 1.806-.324 2.276-.909a8.034 8.034 0 003.699.888c1.32 0 2.605-.312 3.732-.905.473.56 1.241.869 2.243.869 1.74 0 2.779-.932 2.779-2.493 0-1.181-.589-2.46-1.491-3.114.035-.238.056-.478.061-.718.098.005.196.009.297.009.783 0 1.444-.19 1.913-.546.499-.38.763-.928.763-1.584s-.264-1.203-.763-1.584zM3.201 7.468a.042.042 0 010-.046l.346-.6c.004-.006.014-.022.04-.022.027 0 .036.016.04.022l.346.6a.042.042 0 010 .046c-.013.023-.033.023-.04.023h-.692c-.007 0-.026 0-.04-.023zm2.343 2.084c-.461-.462-.562-.896.291-1.75.763-.762 1.191-.763 1.603-.425A5.23 5.23 0 006.246 9.91c-.184-.001-.42-.076-.702-.357zM2.85 15.497c0-.383.135-.7.387-.937v1.188a.35.35 0 00.7 0V14.18a3.22 3.22 0 01.889-.114c1.082 0 2.248.448 2.248 1.43s-1.166 1.43-2.248 1.43c-1.238 0-1.976-.535-1.976-1.43zM6.472 23.3c-.949 0-2.08-.311-2.08-1.793a3.5 3.5 0 01.646-1.977c.41-.567.919-.879 1.434-.879.515 0 1.025.313 1.434.879a3.5 3.5 0 01.645 1.977c0 1.482-1.13 1.793-2.079 1.793zm14.029-1.85c0 1.482-1.13 1.793-2.08 1.793-.948 0-2.079-.311-2.079-1.793a3.5 3.5 0 01.646-1.977c.409-.566.918-.878 1.434-.878.515 0 1.024.312 1.434.878a3.5 3.5 0 01.645 1.977zm-1.454-3.456c-.2-.064-.409-.1-.625-.1-1.591 0-2.78 1.878-2.78 3.556 0 .379.062.72.18 1.02-1.02.53-2.18.81-3.375.81a7.336 7.336 0 01-3.358-.8c.106-.289.162-.614.162-.973 0-1.679-1.188-3.555-2.779-3.555-.215 0-.422.034-.62.097a5.222 5.222 0 01-.031-.53c1.186-.268 1.952-1.025 1.952-2.022 0-.57-.25-1.06-.685-1.427.06-.071.121-.142.185-.211A5.962 5.962 0 008.887 15.3a.35.35 0 10.366-.596c-1.486-.912-2.373-2.402-2.373-3.985 0-2.683 2.497-4.866 5.567-4.866 3.07 0 5.567 2.183 5.567 4.866s-2.497 4.865-5.567 4.865a6.287 6.287 0 01-1.799-.26.35.35 0 00-.2.671 6.983 6.983 0 001.999.29c2.146 0 4.042-.963 5.172-2.428.064.07.126.141.187.213-.435.367-.686.858-.686 1.427 0 .997.767 1.754 1.952 2.023 0 .158-.01.317-.025.474zm1.02-1.067c-1.082 0-2.247-.448-2.247-1.43s1.165-1.43 2.248-1.43c1.237 0 1.976.535 1.976 1.43 0 .895-.739 1.43-1.976 1.43z"/><path d="M15.622 12.479c0-.845-.342-1.513-.988-1.931-.536-.347-1.272-.523-2.188-.523-.915 0-1.651.176-2.188.523-.645.418-.987 1.086-.987 1.93 0 1.646 1.276 2.75 3.175 2.75 1.9 0 3.176-1.104 3.176-2.75zm-3.175.649c-.415 0-.82-.645-.82-1.02 0-.1 0-.267.82-.267s.82.168.82.268c0 .374-.406 1.019-.82 1.019zm-2.476-.65c0-1.163.833-1.754 2.476-1.754 1.642 0 2.475.59 2.475 1.755 0 1.36-1.078 1.932-2.126 2.033v-.74c.696-.222 1.17-1.066 1.17-1.663 0-.384-.198-.678-.557-.83-.23-.095-.526-.138-.963-.138-.436 0-.733.043-.962.139a.855.855 0 00-.557.829c0 .597.474 1.441 1.17 1.663v.74c-1.048-.101-2.126-.673-2.126-2.033zm4.998-3.204a.692.692 0 11-1.384 0 .692.692 0 011.384 0zm-3.606 0a.692.692 0 11-1.384 0 .692.692 0 011.384 0z"/></g><defs><clipPath id="clip0"><path fill="#fff" d="M0 0h22.781v24H0z"/></clipPath></defs></svg>