<svg width="24" height="24" fill="none" xmlns="http://www.w3.org/2000/svg"><g clip-path="url(#clip0)" fill="#F90"><path d="M23.803 16.915v-3.542a1.97 1.97 0 00-1.968-1.969h-1.574V8.7a.394.394 0 00-.394-.393h-2.361a.394.394 0 00-.394.393v2.704h-3.543V6.681a.394.394 0 00-.393-.394h-2.362a.394.394 0 00-.393.394v4.723H6.878V8.651a.394.394 0 00-.394-.394H4.123a.394.394 0 00-.394.394v2.753H2.155a1.97 1.97 0 00-1.968 1.969v3.542a2.283 2.283 0 001.18 2.036v4.262H.58a.394.394 0 000 .787h22.83a.394.394 0 000-.787h-.787v-4.256a2.369 2.369 0 001.18-2.042zM17.9 9.094h1.575v2.31H17.9v-2.31zm-6.691-2.02h1.574v4.33h-1.574v-4.33zm-6.692 1.97h1.575v2.36H4.516v-2.36zm-3.543 4.33a1.18 1.18 0 011.18-1.181h19.681a1.18 1.18 0 011.181 1.18v3.543a1.584 1.584 0 01-.942 1.445 1.61 1.61 0 01-1.746-.328 1.58 1.58 0 01-.46-1.117v-1.574a1.57 1.57 0 00-.872-1.402l-.024-.013a1.492 1.492 0 00-.195-.076c-.039-.013-.075-.026-.114-.035a1.546 1.546 0 00-.152-.027c-.035-.005-.068-.015-.103-.018-.02 0-.037.003-.056.002-.018 0-.039-.006-.06-.006-.043 0-.085.01-.128.013-.044.003-.09.005-.134.013-.068.012-.135.03-.2.051-.036.011-.072.019-.107.033-.073.03-.144.065-.212.106-.025.014-.051.024-.076.04a1.576 1.576 0 00-.717 1.319v.787a1.574 1.574 0 11-3.149 0v-.787a1.57 1.57 0 00-.871-1.402l-.024-.013a1.492 1.492 0 00-.194-.076c-.04-.013-.076-.026-.115-.035a1.536 1.536 0 00-.152-.027c-.035-.005-.068-.015-.103-.018-.019 0-.037.003-.055.002-.02 0-.04-.006-.06-.006-.044 0-.086.01-.129.013-.043.003-.09.005-.133.013a1.58 1.58 0 00-.201.051c-.036.011-.072.019-.107.033-.073.03-.144.065-.211.105-.026.015-.052.025-.077.04a1.57 1.57 0 00-.716 1.32v2.361a1.574 1.574 0 11-3.15 0v-2.361a1.57 1.57 0 00-.87-1.402l-.025-.013a1.494 1.494 0 00-.194-.076c-.04-.013-.075-.026-.114-.035a1.543 1.543 0 00-.153-.027c-.035-.005-.068-.015-.103-.018a1.574 1.574 0 00-1.69 1.57v1.575c.001.417-.163.817-.457 1.113a1.625 1.625 0 01-1.746.332 1.62 1.62 0 01-.484-.328 1.581 1.581 0 01-.461-1.117v-3.542zm1.18 9.84v-3.969c.04.007.08.008.119.013l.03.003a2.37 2.37 0 001.312-.243l.06-.032c.076-.041.15-.087.222-.136.023-.016.046-.03.068-.047a2.295 2.295 0 00.945-1.887v-1.574a.781.781 0 01.36-.66c.008-.006.017-.01.026-.014a.78.78 0 01.12-.06l.038-.012a.768.768 0 01.118-.03l.058-.005a.848.848 0 01.173.004.67.67 0 01.088.016c.01.002.019.006.028.009a.86.86 0 01.565.818v2.295a2.362 2.362 0 004.724 0v-2.361c0-.268.136-.517.36-.661l.022-.011a.78.78 0 01.126-.063l.033-.01a.828.828 0 01.118-.03l.057-.006a.792.792 0 01.262.02c.01.002.018.006.028.009a.86.86 0 01.568.818v.72a2.362 2.362 0 004.724 0v-.786a.781.781 0 01.36-.66c.008-.006.017-.01.026-.014a.809.809 0 01.12-.06c.012-.005.025-.008.04-.012a.751.751 0 01.116-.03l.058-.005a.702.702 0 01.174.004.664.664 0 01.087.016c.01.002.019.006.028.009a.86.86 0 01.565.818v1.508c0 .627.248 1.23.692 1.673.078.076.161.147.249.212.025.018.052.035.079.053a2.374 2.374 0 00.529.273l.05.019c.216.073.44.116.669.126h.002c.11.004.22 0 .33-.01l.039-.005c.04-.004.079-.005.118-.012v3.969H2.155zM11.995 5.5a1.97 1.97 0 001.968-1.968c0-.945-1.37-2.975-1.644-3.372a.409.409 0 00-.648 0c-.275.397-1.644 2.427-1.644 3.372A1.97 1.97 0 0011.995 5.5zm0-4.405c.566.885 1.18 2.007 1.18 2.437a1.18 1.18 0 11-2.36 0c0-.43.614-1.552 1.18-2.437zm6.691 6.474A1.97 1.97 0 0020.654 5.6c0-.945-1.369-2.976-1.643-3.373a.41.41 0 00-.648 0c-.275.397-1.645 2.428-1.645 3.373a1.97 1.97 0 001.968 1.968zm0-4.406c.567.886 1.181 2.008 1.181 2.438a1.18 1.18 0 11-2.361 0c0-.43.614-1.552 1.18-2.438zM5.304 7.569A1.97 1.97 0 007.272 5.6c0-.945-1.37-2.976-1.644-3.373a.409.409 0 00-.648 0c-.275.397-1.645 2.428-1.645 3.373a1.97 1.97 0 001.969 1.968zm0-4.406c.566.886 1.18 2.008 1.18 2.438a1.18 1.18 0 11-2.361 0c0-.43.614-1.552 1.18-2.438z"/></g><defs><clipPath id="clip0"><path fill="#fff" d="M0 0h24v24H0z"/></clipPath></defs></svg>