<svg width="24" height="24" fill="none" xmlns="http://www.w3.org/2000/svg"><path d="M23.649 11.37c-.265-.073-.489.09-.58.329-.154.41-.736.654-1.158.709-.634.083-1.253-.195-1.813-.455-.665-.309-1.35-.603-2.098-.597-.753.007-1.487.307-2.1.73-.69.475-1.244 1.096-1.786 1.728-.165.192-.189.476 0 .665.17.17.5.194.666 0 .87-1.014 2.017-2.353 3.514-2.168.706.087 1.339.48 1.987.744.667.27 1.398.398 2.104.213.7-.184 1.331-.629 1.592-1.32.09-.237-.1-.515-.328-.578zM9.68 6.401c.446-.616.92-1.274 1.055-2.04.131-.742-.06-1.49-.474-2.115-.477-.72-1.17-1.24-1.853-1.75-.204-.153-.526-.033-.644.168-.14.24-.035.492.17.644 1.05.786 2.365 1.88 1.733 3.344-.561 1.3-2.023 2.346-1.84 3.905.088.751.534 1.43 1.293 1.631.586.155.836-.752.25-.907-.474-.125-.661-.644-.61-1.099.073-.66.543-1.257.92-1.78zm6.754 1.143a2.15 2.15 0 00-.96-1.536 2 2 0 00-.94-.319c.16-.53.462-1.017.902-1.354.201-.155.309-.405.169-.644-.116-.198-.44-.324-.644-.169a3.845 3.845 0 00-1.432 2.313 2.822 2.822 0 00-1.475 1.235c-.846 1.506-.312 3.266.54 4.635.319.513 1.133.041.812-.475-.555-.893-1.023-1.963-.78-3.035.117-.52.415-1.008.842-1.296.04.516.186 1.026.438 1.478.35.629 1.015 1.15 1.75.799.593-.284.853-1.013.778-1.632zm-1.047.648c-.256.366-.525-.033-.668-.29-.195-.35-.3-.748-.32-1.147l-.002-.124.07.004c.69.058 1.359.93.92 1.557zm2.96.636c-.606 0-.607.941 0 .941.605 0 .606-.94 0-.94zm.586-1.361c-.605 0-.606.941 0 .941s.607-.941 0-.941zm.92 1.201c-.606 0-.607.94 0 .94.605 0 .606-.94 0-.94zM4.203 4.817c-.606 0-.607.941 0 .941.605 0 .606-.94 0-.94zm.587-1.361c-.606 0-.607.941 0 .941.605 0 .606-.94 0-.94zm.919 1.201c-.605 0-.606.94 0 .94.605 0 .606-.94 0-.94zm7.573 11.957l-6.248-6.248a.47.47 0 00-.754.123l-.562 1.124L.05 22.967a.47.47 0 00.63.63l12.48-6.23a.47.47 0 00.122-.753zM1.52 22.127l2.033-4.072.687 2.714-2.72 1.358zm7.764-3.877l-.801-1.952a.47.47 0 00-.87.357l.827 2.017-3.339 1.666-.904-3.574 1.9-3.804.522 1.274a.47.47 0 00.87-.357l-.834-2.035.174-.349 5.325 5.324-2.87 1.433zm12.776-2.622c-1.05 0-1.904.854-1.904 1.903 0 1.05.854 1.904 1.904 1.904 1.05 0 1.904-.854 1.904-1.904 0-1.05-.854-1.903-1.904-1.903zm0 2.866a.964.964 0 010-1.925.964.964 0 010 1.925zm-.505-16.111L19.663.49a.47.47 0 00-.666 0l-1.892 1.893a.47.47 0 000 .665l1.892 1.892a.47.47 0 00.666 0l1.892-1.892a.47.47 0 000-.665zM19.33 3.942l-1.226-1.227 1.226-1.227 1.227 1.227-1.227 1.227z" fill="#F90"/><path d="M7.512 14.807c-.605 0-.606.941 0 .941.605 0 .606-.94 0-.94z" fill="#F90"/></svg>