<svg width="24" height="22" fill="none" xmlns="http://www.w3.org/2000/svg"><path d="M5.219 4.771a8.266 8.266 0 016.539 0 8.185 8.185 0 011.823-.547l-1.875-1.562a.384.384 0 01-.11-.439l.768-1.922a.385.385 0 01.357-.242h4.998c.158 0 .3.096.358.242l.769 1.922a.385.385 0 01-.111.439l-1.952 1.626a8.264 8.264 0 11-5.02 15.665A8.266 8.266 0 115.218 4.771zm7.571-3.465l-.269.676h.675l-.405-.676zm.61-.478l.475.79.474-.79H13.4zm1.673.288l-.52.866h1.213l-.693-.866zm.755-.288l.692.866.52-.866h-1.212zm1.822.478l-.405.676h.675l-.27-.676zm-.223 1.444h-4.413l1.384 1.154h1.644l1.384-1.154zm-2.399 17.11a7.497 7.497 0 10-2.356-14.617c.29.171.57.36.839.566a6.743 6.743 0 11-2.5 1.16 5.912 5.912 0 00-.834-.32 7.495 7.495 0 004.851 13.21zm-.765-13.406a8.25 8.25 0 01.01 11.814 5.957 5.957 0 10-.01-11.814zM11.76 17.34a5.948 5.948 0 000-9.955 5.949 5.949 0 000 9.955zM9.25 6.456h-.001a5.957 5.957 0 10.013 11.816A8.25 8.25 0 019.25 6.456zM2.78 17.22a7.494 7.494 0 005.712 2.64 7.46 7.46 0 002.356-.377 8.31 8.31 0 01-.84-.567 6.746 6.746 0 112.5-1.161c.27.128.55.235.836.321A7.494 7.494 0 102.78 17.22z" fill="#F90"/></svg>