<svg width="16" height="16" fill="none" xmlns="http://www.w3.org/2000/svg"><path d="M14.125 1.25h-.75V0h-1.25v1.25h-8.25V0h-1.25v1.25h-.75A1.877 1.877 0 000 3.125v11C0 15.159.841 16 1.875 16h12.25A1.877 1.877 0 0016 14.125v-11a1.877 1.877 0 00-1.875-1.875zm.625 12.875c0 .345-.28.625-.625.625H1.875a.626.626 0 01-.625-.625v-8.25h13.5v8.25zm0-9.5H1.25v-1.5c0-.345.28-.625.625-.625h.75v1.25h1.25V2.5h8.25v1.25h1.25V2.5h.75c.345 0 .625.28.625.625v1.5z" fill="#393185"/><path d="M3.625 7.188h-1.25v1.25h1.25v-1.25zm2.5 0h-1.25v1.25h1.25v-1.25zm2.5 0h-1.25v1.25h1.25v-1.25zm2.5 0h-1.25v1.25h1.25v-1.25zm2.5 0h-1.25v1.25h1.25v-1.25zm-10 2.5h-1.25v1.25h1.25v-1.25zm2.5 0h-1.25v1.25h1.25v-1.25zm2.5 0h-1.25v1.25h1.25v-1.25zm2.5 0h-1.25v1.25h1.25v-1.25zm-7.5 2.5h-1.25v1.25h1.25v-1.25zm2.5 0h-1.25v1.25h1.25v-1.25zm2.5 0h-1.25v1.25h1.25v-1.25zm2.5 0h-1.25v1.25h1.25v-1.25zm2.5-2.5h-1.25v1.25h1.25v-1.25z" fill="#393185"/></svg>