<svg width="24" height="24" fill="none" xmlns="http://www.w3.org/2000/svg"><g clip-path="url(#clip0)" fill="#F90"><path d="M8.594 12.823v3.054a.445.445 0 00.89 0v-2.775l-1.41-1.489a1.315 1.315 0 01-.325-1.215l.34-1.414h-.397l.297-.452a.912.912 0 00.199.066 1.317 1.317 0 011.24-.894V6.247a.445.445 0 00-.891 0v.537a.923.923 0 00-.329 0V5.517a.445.445 0 00-.89 0v2.417l-.216.327-.216-.327V5.517a.445.445 0 10-.89 0v1.267a.92.92 0 00-.488.044v-2.07a.445.445 0 00-.89 0v2.417l-.274.415V5.517a.445.445 0 00-.89 0v.552a.92.92 0 00-1.247.865.924.924 0 001.247.864v.27c0 .054.01.107.03.157H2.336l-.692-1.05V4.758a.445.445 0 00-.89 0v2.55c0 .088.025.173.073.246l1.201 1.821v1.947a.45.45 0 00-.009.088v3.709a.445.445 0 10.89 0v-3.055h.443v3.054a.445.445 0 00.89 0V11.41a.45.45 0 00-.008-.088V9.385l.494.75v1.946a.45.45 0 00-.009.088v3.708a.445.445 0 00.89 0v-3.054h.444v3.054a.445.445 0 00.89 0V12.17c0-.03-.003-.06-.009-.088v-1.947l.168-.255.168.255v1.947a.45.45 0 00-.009.088v3.708a.445.445 0 00.89 0v-3.054h.443zm-2.763-3.84h-.795l-.272-.412.27-.411a.923.923 0 001.18.372l.298.452H5.83zm4.621-.809a2.222 2.222 0 01.63-.66c.128-.086.265-.16.409-.219v-.714a.445.445 0 00-.732-.338v-.726a.445.445 0 00-.89 0v2.258a1.3 1.3 0 01.583.4zm-.333 5.637l-.348-.367v2.658l.348-.425v-1.866zM22.7 4.656a.445.445 0 00-.446.445v2.417l-.692 1.05h-1.148a.445.445 0 00.03-.157v-.27a.92.92 0 001.247-.864.924.924 0 00-1.247-.865V5.86a.445.445 0 00-.89 0v2.073l-.274-.415V5.101a.445.445 0 10-.89 0v2.07a.92.92 0 00-.488-.044V5.86a.445.445 0 10-.89 0v2.417l-.216.327-.034-.051v1.721l.034-.052.168.255v1.947a.45.45 0 00-.009.088v3.709a.445.445 0 00.89 0v-3.055h.443v3.055a.445.445 0 00.89 0v-3.709c0-.03-.002-.06-.008-.088v-1.947l.494-.75v1.938a.45.45 0 00-.009.088v3.709a.445.445 0 10.89 0v-3.054h.443v3.054a.445.445 0 00.89 0v-3.709a.45.45 0 00-.008-.088V9.719l1.2-1.822a.445.445 0 00.074-.245V5.1a.445.445 0 00-.445-.445zm-3.838 4.67h-1.475l.297-.45a.918.918 0 001.18-.373l.27.411-.272.413zm-2.228 1.554a1.285 1.285 0 01-.084.148l-1.748 2.653v2.76c.01.063.014.126.014.189v.021c.016.002.032.005.048.005a.445.445 0 00.445-.445v-3.054h.443v3.054a.445.445 0 00.89 0v-3.708c0-.03-.003-.06-.008-.089V10.88zm-2.595-5.028a.445.445 0 10-.89 0v.058a.445.445 0 00-.732.338v.887a2.198 2.198 0 01.89.222c.283.139.532.333.732.573V5.852zM4.414 3.899c.266-.349.278-.84.058-1.223-.237-.414-1.275-1.204-.702-1.664.318-.255-.132-.7-.447-.447-.374.3-.41.759-.28 1.194.174.58 1.311 1.183.825 1.82-.247.325.303.64.546.32zM20.902 1.2c.406-.04.27-.659-.132-.618-.476.048-.755.414-.883.85-.17.58.457 1.705-.298 1.976-.384.138-.093.701.285.565.412-.148.689-.553.713-.994.026-.477-.416-1.705.315-1.779zM8.507 3.829c.068.437.383.812.808.919.39.097.623-.492.228-.59-.778-.196-.266-1.377-.493-1.938-.17-.42-.485-.757-.963-.758-.404 0-.478.628-.07.628.734.002.417 1.267.49 1.739zm7.743-2.268c.186-.414.211-.874-.12-1.22-.279-.291-.784.09-.502.385.508.53-.625 1.178-.915 1.557-.268.352-.32.84-.102 1.22.2.349.785.11.583-.245-.398-.696.809-1.145 1.056-1.697zm-5.71.666c.17.408.566.698 1.004.701.402.003.489-.625.08-.627-.801-.005-.584-1.274-.937-1.765-.265-.37-.65-.622-1.115-.509-.393.095-.316.723.08.627.715-.173.706 1.132.889 1.573zM6.05 3.956c.57 0 .57-.885 0-.885-.571 0-.571.885 0 .885zM1.835 2.69c.571 0 .571-.885 0-.885-.57 0-.57.885 0 .885zM13.727.67c-.57 0-.57.885 0 .885.571 0 .571-.885 0-.885zm-.849 3.156c.57 0 .57-.886 0-.886-.571 0-.571.886 0 .886zm4.9-1.323c.571 0 .571-.886 0-.886-.57 0-.57.886 0 .886zm5.064.07c-.57 0-.57.885 0 .885.571 0 .571-.885 0-.885z"/><path d="M14.385 13.114l1.604-2.433a.686.686 0 00.113-.377V5.456l-.002-.05a.687.687 0 00-1.372.05v4.641l-.334.507-.733 1.113h-2.738l-1.148-1.212.228-.948.09-.372V9.18a.652.652 0 00.01-.054c0-.01.002-.018.003-.027a.68.68 0 00-.094-.43.685.685 0 00-.428-.314l-.013-.002a.687.687 0 00-.148-.017h-.008a.687.687 0 00-.659.527l-.029.12-.045.187-.33 1.376a.687.687 0 00.17.633l.95 1.004.327.344.971 1.026v2.344l-.09.11-.753.92-1.438 1.759a.687.687 0 00.065.94l1.75 1.615a.685.685 0 00.971-.039.687.687 0 00-.039-.97l-1.274-1.177 1.158-1.415h1.656v4.712a.687.687 0 001.374 0V16.63a.689.689 0 00-.014-.136v-3.003l.25-.378z"/><path d="M10.763 9.72a1.586 1.586 0 001.54 1.216 1.583 1.583 0 00.08-3.165c-.027-.001-.053-.004-.08-.004a1.576 1.576 0 00-.84.242 1.583 1.583 0 00-.735 1.17l-.002.027a1.624 1.624 0 00-.007.13v.016a1.583 1.583 0 00.044.369z"/></g><defs><clipPath id="clip0"><path fill="#fff" d="M0 0h24v23.04H0z"/></clipPath></defs></svg>