<svg width="24" height="24" viewBox="0 0 24 24" fill="none" xmlns="http://www.w3.org/2000/svg">
<g clip-path="url(#clip0)">
<path d="M9.81714 2.65828C10.0843 2.74641 10.3372 2.85919 10.5688 2.9935C10.6298 3.02891 10.6965 3.04577 10.7623 3.04577C10.8956 3.04577 11.0254 2.9767 11.0971 2.8531C11.2042 2.66843 11.1413 2.43191 10.9567 2.32476C10.679 2.16369 10.377 2.02891 10.0592 1.92407C9.85657 1.85728 9.63793 1.96732 9.57103 2.17008C9.50423 2.37284 9.61443 2.59143 9.81714 2.65828Z" fill="#FF9900"/>
<path d="M12.4382 6.79644C12.4382 7.37308 12.3712 7.96251 12.2392 8.54822C12.1922 8.7565 12.323 8.96339 12.5312 9.01034C12.5598 9.01678 12.5884 9.01988 12.6166 9.01988C12.7933 9.01988 12.9528 8.89788 12.9934 8.71826C13.138 8.07683 13.2113 7.43024 13.2113 6.79644C13.2113 5.44658 12.8819 4.32215 12.2321 3.45456C12.1042 3.2837 11.8619 3.24886 11.691 3.37684C11.5202 3.50481 11.4853 3.74711 11.6133 3.91797C12.1606 4.64887 12.4382 5.61733 12.4382 6.79644Z" fill="#FF9900"/>
<path d="M6.85572 12.6991C5.89504 12.0438 5.03606 10.7873 4.55786 9.33786C4.49096 9.1351 4.27227 9.025 4.06961 9.0919C3.86685 9.1588 3.75675 9.37739 3.82365 9.58015C4.36118 11.2093 5.30758 12.5789 6.42009 13.3378C6.48674 13.3833 6.56255 13.4051 6.63755 13.4051C6.76104 13.4051 6.88242 13.346 6.95726 13.2363C7.0775 13.0599 7.03209 12.8194 6.85572 12.6991Z" fill="#FF9900"/>
<path d="M20.3542 6.31307C19.1773 5.16685 17.5283 4.53562 15.711 4.53562C15.3277 4.53562 14.9487 4.56408 14.5802 4.61943C14.2734 3.50557 13.7183 2.54309 12.9322 1.77745C11.7553 0.631225 10.1064 0 8.28908 0C6.47179 0 4.82283 0.631225 3.64594 1.77745C2.38437 3.00614 1.71753 4.74169 1.71753 6.79643C1.71753 8.88905 2.40334 11.0672 3.59914 12.7725C4.61853 14.2262 5.87628 15.1617 7.21945 15.4875C7.1292 15.6569 7.07781 15.85 7.07781 16.055V16.8797C7.07781 17.0932 7.25089 17.2662 7.46437 17.2662H7.87954C7.84804 17.504 7.78759 17.6652 7.72094 17.8429C7.61276 18.1313 7.49014 18.4581 7.49014 19.0778C7.49014 19.6978 7.61271 20.0247 7.72089 20.3133C7.81836 20.5731 7.90247 20.7975 7.90247 21.2774C7.90247 21.7572 7.81836 21.9816 7.72089 22.2415C7.61271 22.53 7.49014 22.857 7.49014 23.477C7.49014 23.6905 7.66322 23.8636 7.8767 23.8636C8.09018 23.8636 8.26326 23.6905 8.26326 23.477C8.26326 22.9972 8.34738 22.7728 8.44479 22.5129C8.55297 22.2244 8.67559 21.8974 8.67559 21.2774C8.67559 20.6575 8.55297 20.3304 8.44479 20.0419C8.34738 19.7821 8.26326 19.5577 8.26326 19.0779C8.26326 18.5985 8.34738 18.3742 8.44479 18.1146C8.52787 17.8931 8.61926 17.6484 8.65729 17.2664H9.11369C9.32717 17.2664 9.50025 17.0933 9.50025 16.8798V16.0551C9.50025 15.8502 9.44886 15.657 9.35861 15.4876C9.55354 15.4403 9.74667 15.3803 9.93758 15.3075C10.9532 17.8051 12.7143 19.5435 14.6428 20.0204C14.5516 20.1905 14.4997 20.3846 14.4997 20.5908V21.4155C14.4997 21.629 14.6728 21.802 14.8863 21.802H15.3015C15.27 22.0398 15.2095 22.201 15.1429 22.3787C15.0347 22.667 14.9121 22.9939 14.9121 23.6135C14.9121 23.827 15.0851 24.0001 15.2986 24.0001C15.5121 24.0001 15.6852 23.827 15.6852 23.6135C15.6852 23.1342 15.7693 22.9099 15.8667 22.6503C15.9498 22.4288 16.0412 22.1841 16.0792 21.802H16.5356C16.7491 21.802 16.9222 21.629 16.9222 21.4155V20.5908C16.9222 20.3858 16.8708 20.1927 16.7805 20.0233C18.1237 19.6974 19.3815 18.762 20.4008 17.3083C21.5966 15.603 22.2824 13.4248 22.2824 11.3322C22.2825 9.27731 21.6157 7.54176 20.3542 6.31307ZM4.23217 12.3286C3.12543 10.7503 2.4907 8.73391 2.4907 6.79643C2.4907 4.95507 3.07672 3.41105 4.18537 2.33131C5.21707 1.32646 6.67445 0.773118 8.28908 0.773118C9.90371 0.773118 11.3611 1.32646 12.3928 2.33126C13.5014 3.41105 14.0875 4.95507 14.0875 6.79638C14.0875 8.73391 13.4527 10.7503 12.346 12.3285C11.2086 13.9506 9.76785 14.8439 8.28908 14.8439C6.81031 14.8439 5.36953 13.9506 4.23217 12.3286ZM8.72718 16.0551V16.4932H7.85098V16.0551C7.85098 15.8135 8.04751 15.617 8.28908 15.617C8.53066 15.617 8.72718 15.8135 8.72718 16.0551ZM16.1491 20.5907V21.0288H15.2729V20.5907C15.2729 20.3491 15.4694 20.1526 15.711 20.1526C15.9526 20.1526 16.1491 20.3491 16.1491 20.5907ZM19.7679 16.8642C18.6305 18.4862 17.1898 19.3795 15.711 19.3795C14.6687 19.3795 13.6257 18.9253 12.6947 18.066C11.8579 17.2937 11.1335 16.2035 10.639 14.9783C10.8907 14.837 11.1372 14.673 11.3771 14.4869C11.9301 15.9518 12.8151 17.1729 13.842 17.8734C13.9087 17.9188 13.9845 17.9406 14.0595 17.9406C14.183 17.9406 14.3044 17.8815 14.3792 17.7719C14.4995 17.5955 14.454 17.355 14.2777 17.2347C13.3312 16.5891 12.4837 15.3598 12.0015 13.9376C12.346 13.5972 12.6733 13.2084 12.979 12.7725C14.1748 11.0672 14.8606 8.88905 14.8606 6.79643C14.8606 6.30364 14.8218 5.82951 14.7461 5.376C15.0605 5.33132 15.3838 5.30874 15.711 5.30874C17.3256 5.30874 18.7831 5.86209 19.8147 6.86688C20.9234 7.94667 21.5094 9.49069 21.5094 11.332C21.5094 13.2696 20.8747 15.286 19.7679 16.8642Z" fill="#FF9900"/>
<path d="M19.654 7.99014C19.5261 7.81929 19.2837 7.78444 19.1129 7.91242C18.942 8.0404 18.9072 8.28269 19.0352 8.45355C19.5825 9.18446 19.8601 10.1529 19.8601 11.332C19.8601 11.9087 19.7931 12.4981 19.6611 13.0838C19.6141 13.2921 19.7449 13.499 19.9532 13.5459C19.9818 13.5524 20.0104 13.5555 20.0385 13.5555C20.2153 13.5555 20.3748 13.4335 20.4153 13.2539C20.5599 12.6124 20.6332 11.9658 20.6332 11.332C20.6332 9.98217 20.3037 8.85779 19.654 7.99014Z" fill="#FF9900"/>
<path d="M18.3787 6.8604C18.101 6.69933 17.7991 6.56455 17.4813 6.45972C17.2785 6.39292 17.06 6.50296 16.9931 6.70572C16.9262 6.90849 17.0364 7.12702 17.2391 7.19392C17.5063 7.28206 17.7591 7.39483 17.9907 7.52914C18.0518 7.56455 18.1185 7.58141 18.1843 7.58141C18.3176 7.58141 18.4473 7.51234 18.519 7.38875C18.6263 7.20407 18.5634 6.96755 18.3787 6.8604Z" fill="#FF9900"/>
</g>
<defs>
<clipPath id="clip0">
<rect width="24" height="24" fill="white"/>
</clipPath>
</defs>
</svg>
