<svg width="23" height="24" viewBox="0 0 23 24" fill="none" xmlns="http://www.w3.org/2000/svg">
<g clip-path="url(#clip0)">
<path d="M21.981 13.9134C21.5122 13.5564 20.8509 13.3676 20.0679 13.3676C19.4318 13.3676 18.8664 13.4855 18.4049 13.6963C18.2839 13.5469 18.155 13.4018 18.0202 13.2619C18.4633 12.4991 18.7138 11.6345 18.7138 10.7188C18.7138 9.46599 18.2453 8.30876 17.4557 7.37749C17.7523 7.13378 18.0574 7.06566 18.4899 7.3319C18.6578 7.43535 18.8449 7.58898 19.0583 7.80229C19.0799 7.8239 19.1005 7.84514 19.1209 7.8662C19.835 8.60558 19.7562 8.98955 19.5612 9.29387C19.5587 9.2979 19.5567 9.30211 19.5543 9.30632C19.5263 9.3477 19.4951 9.38872 19.4611 9.42973C19.3375 9.57823 19.3574 9.79869 19.5059 9.92247C19.5713 9.97703 19.6508 10.0036 19.7297 10.0036C19.8299 10.0036 19.9295 9.96074 19.9987 9.87779C20.0556 9.80949 20.1052 9.74156 20.1486 9.67399C20.1492 9.67308 20.1499 9.67235 20.1505 9.67143C20.1514 9.67015 20.1519 9.66905 20.1527 9.66777C20.171 9.63902 20.188 9.61046 20.2039 9.58189C20.2076 9.57548 20.2111 9.56926 20.2146 9.56285C20.2283 9.53795 20.2409 9.51304 20.2528 9.48814C20.2583 9.47679 20.2636 9.46525 20.2688 9.4539C20.2775 9.43449 20.2858 9.41527 20.2935 9.39604C20.6606 8.49132 19.9619 7.72063 19.6118 7.3665C19.6054 7.35991 19.5991 7.35369 19.5929 7.34746C19.5889 7.34343 19.5849 7.3394 19.5808 7.33537C19.5711 7.32567 19.5618 7.31615 19.553 7.30754C19.1945 6.94884 18.1347 5.88958 16.9714 6.87175C15.8299 5.81341 14.2235 5.15313 12.4469 5.15313C10.67 5.15313 9.06364 5.81341 7.92216 6.87175C6.7589 5.88958 5.69909 6.94884 5.34057 7.30754C4.96575 7.68218 3.82555 8.82255 5.04943 10.0464C5.40539 10.4022 5.7846 10.5897 6.18138 10.6076C6.18047 10.6446 6.17974 10.6816 6.17974 10.7188C6.17974 11.6166 6.42418 12.4861 6.87316 13.2623C6.73857 13.402 6.60967 13.5469 6.48882 13.6964C6.02721 13.4857 5.46178 13.3676 4.82567 13.3676C4.5078 13.3676 4.21026 13.3993 3.93707 13.4602V8.19029C4.20495 8.18901 4.44482 8.04985 4.57885 7.81749C4.71361 7.58403 4.71361 7.30535 4.57885 7.07189L4.56017 7.03948C6.08013 6.61083 7.17381 5.2055 7.17381 3.58666C7.17381 1.60894 5.56487 0 3.58715 0C2.47552 0 1.44482 0.50299 0.759642 1.37988C0.640624 1.53222 0.66754 1.75213 0.819701 1.87097C0.972044 1.98999 1.19195 1.96307 1.31097 1.81073C1.86267 1.10467 2.69232 0.699828 3.58715 0.699828C5.17888 0.699828 6.47399 1.99493 6.47399 3.58666C6.47399 4.95244 5.50701 6.1289 4.19158 6.40941C4.05206 6.21441 3.83123 6.09996 3.58715 6.09996C3.34307 6.09996 3.12225 6.21441 2.98272 6.40941C1.66729 6.1289 0.700316 4.95244 0.700316 3.58666C0.700316 3.43652 0.711852 3.28582 0.73474 3.13861C0.764586 2.94763 0.633849 2.76873 0.44287 2.73907C0.251892 2.70977 0.0729979 2.84014 0.0433349 3.03094C0.0149536 3.21368 0.000488281 3.40063 0.000488281 3.58666C0.000488281 5.20568 1.09418 6.61083 2.61413 7.03948L2.59545 7.07189C2.46069 7.30535 2.46069 7.58421 2.59545 7.81767C2.72949 8.04985 2.96935 8.18901 3.23724 8.19029V13.7094C3.12097 13.7699 3.01238 13.8376 2.91278 13.9134C2.41381 14.2936 2.15014 14.8412 2.15014 15.4971C2.15014 16.1528 2.41381 16.7005 2.91278 17.0806C3.38134 17.4378 4.0429 17.6264 4.82567 17.6264C4.92638 17.6264 5.02526 17.6233 5.1223 17.6175C5.12835 17.8753 5.1516 18.1331 5.19152 18.3872C4.2846 19.04 3.69299 20.3228 3.69299 21.5066C3.69299 23.068 4.73192 24 6.47197 24C7.49718 24 8.27849 23.6764 8.74797 23.0914C9.86692 23.6727 11.1404 23.9793 12.4469 23.9793C13.7669 23.9793 15.0517 23.6667 16.1789 23.074C16.6515 23.6337 17.4202 23.9428 18.4216 23.9428C20.1618 23.9428 21.2008 23.0108 21.2008 21.4497C21.2008 20.269 20.6124 18.9902 19.7097 18.3356C19.7449 18.0983 19.7658 17.8579 19.7714 17.6175C19.8685 17.6233 19.9672 17.6266 20.0679 17.6266C20.8509 17.6266 21.5122 17.4378 21.981 17.0808C22.4798 16.7005 22.7436 16.153 22.7436 15.4971C22.7436 14.8412 22.4798 14.2936 21.981 13.9134ZM3.20153 7.46776C3.18817 7.44469 3.19787 7.42803 3.20153 7.4218L3.54742 6.8225C3.55108 6.81627 3.5606 6.79961 3.58715 6.79961C3.6137 6.79961 3.62322 6.81627 3.62689 6.8225L3.97277 7.4218C3.97643 7.42803 3.98614 7.44469 3.97277 7.46776C3.95959 7.49065 3.94036 7.49065 3.93304 7.49065H3.24127C3.23394 7.49065 3.21472 7.49065 3.20153 7.46776ZM5.54436 9.5515C5.08257 9.08971 4.98223 8.65556 5.83532 7.80229C6.59813 7.03966 7.02605 7.03929 7.43804 7.37749C6.82189 8.10423 6.40129 8.96886 6.24639 9.9091C6.06182 9.908 5.82616 9.83329 5.54436 9.5515ZM2.84997 15.4971C2.84997 15.1139 2.98547 14.7973 3.23724 14.5598V15.7478C3.23724 15.9411 3.39398 16.0977 3.58715 16.0977C3.78033 16.0977 3.93707 15.9411 3.93707 15.7478V14.1813C4.19378 14.1066 4.49132 14.0672 4.82567 14.0672C5.90837 14.0672 7.07366 14.5147 7.07366 15.4969C7.07366 16.4793 5.90837 16.9266 4.82567 16.9266C3.58843 16.9266 2.84997 16.3923 2.84997 15.4971ZM6.47197 23.3001C5.52349 23.3001 4.39263 22.989 4.39263 21.5066C4.39263 20.8277 4.63378 20.0888 5.03789 19.5298C5.44732 18.9635 5.95671 18.6515 6.47197 18.6515C6.98741 18.6515 7.49681 18.9635 7.90623 19.5298C8.31016 20.0888 8.55131 20.8277 8.55131 21.5066C8.55131 22.989 7.42064 23.3001 6.47197 23.3001ZM20.5009 21.4495C20.5009 22.9319 19.3703 23.2432 18.4216 23.2432C17.4731 23.2432 16.3423 22.9319 16.3423 21.4495C16.3423 20.7707 16.5836 20.0317 16.9875 19.4729C17.3969 18.9065 17.9063 18.5945 18.4216 18.5945C18.937 18.5945 19.4464 18.9065 19.8559 19.4729C20.2598 20.0317 20.5009 20.7707 20.5009 21.4495ZM19.0465 17.9939C18.8469 17.9298 18.638 17.8947 18.4216 17.8947C16.831 17.8947 15.6424 19.7715 15.6424 21.4495C15.6424 21.8287 15.7043 22.1704 15.8219 22.4708C14.8025 23.0004 13.6413 23.2794 12.4469 23.2794C11.26 23.2794 10.1046 23.0037 9.08946 22.4804C9.19548 22.1914 9.25114 21.8659 9.25114 21.5066C9.25114 19.8285 8.06261 17.9518 6.47197 17.9518C6.25737 17.9518 6.0501 17.9862 5.85198 18.0494C5.83257 17.8736 5.82213 17.6966 5.82067 17.5197C7.00682 17.2509 7.77348 16.4937 7.77348 15.4969C7.77348 14.9278 7.523 14.4371 7.08794 14.0703C7.14763 13.9988 7.20934 13.9281 7.27269 13.8589C7.70097 14.4157 8.2448 14.9064 8.88713 15.3004C9.05174 15.4017 9.26725 15.3501 9.36833 15.1853C9.4694 15.0207 9.41777 14.8051 9.25316 14.7041C7.76689 13.7922 6.87956 12.3023 6.87956 10.7188C6.87956 8.03575 9.37694 5.85296 12.4469 5.85296C15.5166 5.85296 18.014 8.03575 18.014 10.7188C18.014 13.4016 15.5166 15.5844 12.4469 15.5844C11.8309 15.5844 11.2257 15.4971 10.6482 15.3248C10.4631 15.2695 10.2683 15.375 10.213 15.5601C10.1577 15.7452 10.263 15.9402 10.4483 15.9953C11.0906 16.187 11.763 16.2843 12.4469 16.2843C14.5925 16.2843 16.4893 15.3217 17.6194 13.8572C17.6833 13.9272 17.7454 13.9982 17.8056 14.0703C17.3706 14.4371 17.1201 14.928 17.1201 15.4969C17.1201 16.4936 17.8866 17.2507 19.0724 17.5197C19.0713 17.6781 19.0625 17.8365 19.0465 17.9939ZM20.0679 16.9266C18.9852 16.9266 17.8199 16.4793 17.8199 15.4969C17.8199 14.5147 18.9852 14.0672 20.0679 14.0672C21.3051 14.0672 22.0438 14.6017 22.0438 15.4969C22.0438 16.3923 21.3051 16.9266 20.0679 16.9266Z" fill="#FF9900"/>
<path d="M15.6217 12.4786C15.6217 11.6336 15.2802 10.9658 14.6344 10.5478C14.0983 10.2006 13.3622 10.0247 12.4465 10.0247C11.5308 10.0247 10.7947 10.2006 10.2585 10.5478C9.61255 10.9658 9.27124 11.6336 9.27124 12.4786C9.27124 14.1237 10.5473 15.2289 12.4465 15.2289C14.3458 15.2289 15.6217 14.1237 15.6217 12.4786ZM12.4465 13.1277C12.0317 13.1277 11.6267 12.4832 11.6267 12.1089C11.6267 12.0088 11.6267 11.8409 12.4465 11.8409C13.2662 11.8409 13.2662 12.0088 13.2662 12.1089C13.2662 12.4832 12.861 13.1277 12.4465 13.1277ZM9.97089 12.4786C9.97089 11.3146 10.8038 10.7243 12.4465 10.7243C14.0891 10.7243 14.9219 11.3146 14.9219 12.4786C14.9219 13.8395 13.8439 14.4106 12.7964 14.512V13.7719C13.4916 13.55 13.9661 12.7055 13.9661 12.1089C13.9661 11.725 13.7681 11.4305 13.4087 11.2798C13.1796 11.1839 12.8828 11.1411 12.4465 11.1411C12.0099 11.1411 11.7131 11.1839 11.4841 11.2798C11.1246 11.4305 10.9267 11.725 10.9267 12.1089C10.9267 12.7055 11.4011 13.55 12.0964 13.7719V14.512C11.049 14.4106 9.97089 13.8395 9.97089 12.4786Z" fill="#FF9900"/>
<path d="M14.9689 9.27429C14.9689 9.65643 14.6591 9.96625 14.277 9.96625C13.8948 9.96625 13.5848 9.65643 13.5848 9.27429C13.5848 8.89197 13.8948 8.58215 14.277 8.58215C14.6591 8.58215 14.9689 8.89197 14.9689 9.27429Z" fill="#FF9900"/>
<path d="M11.3632 9.27429C11.3632 9.65643 11.0533 9.96625 10.6712 9.96625C10.2891 9.96625 9.97925 9.65643 9.97925 9.27429C9.97925 8.89197 10.2891 8.58215 10.6712 8.58215C11.0533 8.58215 11.3632 8.89197 11.3632 9.27429Z" fill="#FF9900"/>
</g>
<defs>
<clipPath id="clip0">
<rect width="22.7812" height="24" fill="white"/>
</clipPath>
</defs>
</svg>
