<svg width="24" height="24" viewBox="0 0 24 24" fill="none" xmlns="http://www.w3.org/2000/svg">
<g clip-path="url(#clip0)">
<path d="M23.8034 16.915V13.3725C23.8023 12.286 22.9218 11.4056 21.8353 11.4044H20.2609V8.70032C20.2609 8.48295 20.0846 8.30671 19.8673 8.30671H17.5056C17.2882 8.30671 17.112 8.48295 17.112 8.70032V11.4044H13.5694V6.68106C13.5694 6.46369 13.3932 6.28745 13.1758 6.28745H10.8141C10.5968 6.28745 10.4205 6.46369 10.4205 6.68106V11.4044H6.87801V8.65104C6.87801 8.43367 6.70177 8.25742 6.48439 8.25742H4.12271C3.90534 8.25742 3.7291 8.43367 3.7291 8.65104V11.4044H2.15464C1.06836 11.4056 0.187915 12.286 0.18657 13.3725V16.915C0.173116 17.7597 0.627464 18.5429 1.36741 18.9507V23.2128H0.580184C0.362812 23.2128 0.18657 23.3891 0.18657 23.6065C0.18657 23.8238 0.362812 24.0001 0.580184 24.0001H23.4098C23.6272 24.0001 23.8034 23.8238 23.8034 23.6065C23.8034 23.3891 23.6272 23.2128 23.4098 23.2128H22.6226V18.9567C23.3512 18.5343 23.8007 17.757 23.8034 16.915ZM17.8992 9.09393H19.4737V11.4044H17.8992V9.09393ZM11.2078 7.07467H12.7822V11.4044H11.2078V7.07467ZM4.51632 9.04465H6.09078V11.4044H4.51632V9.04465ZM0.973798 13.3725C0.973798 12.7202 1.50252 12.1917 2.15464 12.1917H21.8353C22.4876 12.1917 23.0162 12.7202 23.0162 13.3725V16.915C23.0148 17.5402 22.6458 18.106 22.0742 18.3596C21.4792 18.6102 20.7919 18.4812 20.3283 18.0317C20.0327 17.7351 19.8671 17.3334 19.8673 16.915V15.3406C19.8653 14.7461 19.528 14.2039 18.9959 13.9393L18.9718 13.9262C18.9088 13.8964 18.8438 13.871 18.7773 13.8503C18.7381 13.8372 18.7022 13.8243 18.6632 13.8149C18.6128 13.8034 18.5619 13.7944 18.5106 13.788C18.476 13.783 18.4429 13.7726 18.4077 13.77C18.3889 13.77 18.3708 13.7726 18.3524 13.7719C18.3337 13.7711 18.3134 13.7661 18.2928 13.7661C18.2492 13.7661 18.2071 13.7751 18.1638 13.7786C18.1204 13.7823 18.0745 13.7842 18.0303 13.7917C17.9622 13.8044 17.895 13.8217 17.8292 13.8432C17.7937 13.8541 17.7576 13.862 17.723 13.8755C17.6495 13.9053 17.5786 13.9408 17.5108 13.9818C17.486 13.996 17.4597 14.0062 17.4352 14.0212C17.3434 14.0807 17.2578 14.1497 17.1802 14.227C16.8836 14.5214 16.7174 14.9225 16.7184 15.3406V16.1278C16.7184 16.9973 16.0136 17.7022 15.1439 17.7022C14.2744 17.7022 13.5694 16.9973 13.5694 16.1278V15.3406C13.5675 14.7461 13.2302 14.2039 12.698 13.9393L12.674 13.9262C12.611 13.8964 12.546 13.871 12.4795 13.8503C12.4403 13.8372 12.4044 13.8243 12.3653 13.8149C12.315 13.8034 12.2641 13.7944 12.2127 13.788C12.1781 13.783 12.1451 13.7726 12.1099 13.77C12.0911 13.77 12.073 13.7726 12.0546 13.7719C12.0359 13.7711 12.0156 13.7661 11.995 13.7661C11.9514 13.7661 11.9093 13.7751 11.866 13.7786C11.8226 13.7823 11.7767 13.7842 11.7325 13.7917C11.6646 13.8044 11.5975 13.8217 11.5318 13.8432C11.4959 13.8541 11.4597 13.862 11.4251 13.8755C11.3521 13.9053 11.2814 13.9406 11.2137 13.9814C11.1885 13.9956 11.1618 14.0062 11.1374 14.0208C11.0455 14.0802 10.96 14.149 10.8824 14.2262C10.5856 14.5209 10.4194 14.9224 10.4205 15.3406V17.7022C10.4205 18.5717 9.71576 19.2767 8.84608 19.2767C7.97659 19.2767 7.27162 18.5717 7.27162 17.7022V15.3406C7.2697 14.7461 6.9324 14.2039 6.40021 13.9393L6.37619 13.9262C6.31315 13.8964 6.24819 13.871 6.18169 13.8503C6.14248 13.8372 6.10654 13.8243 6.06752 13.8149C6.01717 13.8034 5.96624 13.7944 5.91492 13.788C5.88033 13.783 5.84727 13.7726 5.8121 13.77C5.77712 13.7673 5.73657 13.7661 5.69717 13.7661C4.82768 13.7661 4.12271 14.4709 4.12271 15.3406V16.915C4.12329 17.3321 3.95877 17.7324 3.6649 18.0284C3.27475 18.4039 2.72334 18.5604 2.19404 18.4457C2.09986 18.4257 2.00761 18.3972 1.91863 18.3603C1.73873 18.2809 1.57479 18.1697 1.43487 18.0317C1.13928 17.7351 0.973606 17.3334 0.973798 16.915V13.3725ZM2.15464 23.2128V19.244C2.19404 19.2506 2.23344 19.2523 2.27284 19.2569L2.30301 19.2602C2.64743 19.2957 2.99549 19.2554 3.3226 19.142C3.42255 19.1068 3.52018 19.0649 3.61455 19.0169C3.63473 19.0071 3.65395 18.9963 3.6749 18.9853C3.7512 18.9438 3.82538 18.8983 3.89688 18.8487C3.91975 18.8331 3.94282 18.8185 3.9653 18.802C4.56783 18.3636 4.91993 17.66 4.90994 16.915V15.3406C4.90955 15.1316 4.99277 14.9314 5.14095 14.7844C5.18035 14.7453 5.2236 14.7104 5.27011 14.6804C5.27837 14.6754 5.28741 14.6717 5.29567 14.6671C5.3343 14.6435 5.37466 14.6233 5.41656 14.6068C5.42886 14.6022 5.44135 14.5993 5.45365 14.5954C5.49209 14.5824 5.53149 14.5726 5.57166 14.5658C5.5905 14.5628 5.61106 14.562 5.62951 14.5599C5.66257 14.5568 5.69582 14.5556 5.72907 14.5564C5.75386 14.5576 5.77866 14.5601 5.80306 14.5639C5.83266 14.5674 5.86207 14.5727 5.8909 14.5801C5.9007 14.5824 5.90973 14.586 5.91915 14.5887C6.26222 14.7138 6.48881 15.0419 6.48439 15.4071V17.7022C6.48439 19.0065 7.54185 20.0639 8.84608 20.0639C10.1505 20.0639 11.2078 19.0065 11.2078 17.7022V15.3406C11.2078 15.0732 11.3438 14.8243 11.5687 14.68C11.5754 14.6758 11.5833 14.6729 11.59 14.6687C11.63 14.6442 11.6719 14.6233 11.7155 14.6064C11.7267 14.6022 11.738 14.5997 11.749 14.5962C11.7876 14.5831 11.827 14.5727 11.8672 14.5654C11.886 14.5628 11.9066 14.5616 11.9239 14.5599C11.9569 14.5566 11.9904 14.5555 12.0238 14.5564C12.0486 14.5576 12.0732 14.5601 12.0978 14.5639C12.1274 14.5674 12.1566 14.5727 12.1856 14.5801C12.1954 14.5824 12.2045 14.586 12.2139 14.5887C12.5581 14.7129 12.7863 15.0411 12.7822 15.4071V16.1278C12.7822 17.432 13.8397 18.4895 15.1439 18.4895C16.4483 18.4895 17.5056 17.432 17.5056 16.1278V15.3406C17.5052 15.1316 17.5884 14.9314 17.7366 14.7844C17.776 14.7453 17.8192 14.7104 17.8658 14.6804C17.874 14.6754 17.8831 14.6717 17.8917 14.6665C17.9301 14.6433 17.9705 14.6233 18.0122 14.6068C18.0245 14.6022 18.0374 14.5993 18.0516 14.5954C18.0895 14.5824 18.1283 14.5726 18.1677 14.5658C18.1865 14.5628 18.2071 14.562 18.2255 14.5599C18.2586 14.5568 18.2919 14.5556 18.3251 14.5564C18.3499 14.5576 18.3747 14.5601 18.3991 14.5639C18.4287 14.5674 18.4581 14.5727 18.4869 14.5801C18.4967 14.5824 18.5058 14.586 18.5152 14.5887C18.8581 14.714 19.0847 15.0421 19.08 15.4071V16.915C19.0795 17.5423 19.3282 18.1443 19.7717 18.5883C19.8498 18.6644 19.933 18.7351 20.0208 18.8001C20.0464 18.8185 20.0727 18.835 20.0996 18.8527C20.1657 18.8979 20.2326 18.9398 20.3022 18.9778C20.3299 18.9928 20.3574 19.0074 20.3852 19.0211C20.4646 19.0605 20.5459 19.0955 20.6289 19.1258C20.6455 19.1318 20.6616 19.1393 20.6785 19.1449C20.8945 19.2185 21.1198 19.2609 21.3477 19.2707H21.3504C21.4602 19.2752 21.5701 19.2719 21.6795 19.2609L21.7189 19.2565C21.7583 19.2523 21.7977 19.2506 21.8371 19.244V23.2128H2.15464Z" fill="#FF9900"/>
<path d="M11.9951 5.50022C13.0815 5.49887 13.962 4.61843 13.9631 3.53215C13.9631 2.58732 12.5937 0.556787 12.3191 0.159521C12.2416 0.0590037 12.1221 0 11.9951 0C11.8682 0 11.7485 0.0590037 11.6712 0.159521C11.3964 0.556787 10.027 2.58732 10.027 3.53215C10.0283 4.61843 10.9088 5.49887 11.9951 5.50022ZM11.9951 1.09474C12.5614 1.97999 13.1759 3.10221 13.1759 3.53215C13.1759 4.18426 12.6474 4.71299 11.9951 4.71299C11.3429 4.71299 10.8142 4.18426 10.8142 3.53215C10.8142 3.10221 11.4287 1.97999 11.9951 1.09474Z" fill="#FF9900"/>
<path d="M18.6864 7.56877C19.7729 7.56742 20.6533 6.68698 20.6545 5.60069C20.6545 4.65587 19.2851 2.62533 19.0105 2.22806C18.933 2.12755 18.8135 2.06854 18.6864 2.06854C18.5596 2.06854 18.4399 2.12755 18.3626 2.22806C18.0878 2.62533 16.7184 4.65587 16.7184 5.60069C16.7197 6.68698 17.6002 7.56742 18.6864 7.56877ZM18.6864 3.16328C19.2528 4.04853 19.8673 5.17075 19.8673 5.60069C19.8673 6.25281 19.3387 6.78154 18.6864 6.78154C18.0343 6.78154 17.5056 6.25281 17.5056 5.60069C17.5056 5.17075 18.12 4.04853 18.6864 3.16328Z" fill="#FF9900"/>
<path d="M5.30352 7.56877C6.38999 7.56742 7.27043 6.68698 7.27158 5.60069C7.27158 4.65587 5.9022 2.62533 5.62755 2.22806C5.5501 2.12755 5.43056 2.06854 5.30352 2.06854C5.17667 2.06854 5.05693 2.12755 4.97967 2.22806C4.70483 2.62533 3.33545 4.65587 3.33545 5.60069C3.33679 6.68698 4.21723 7.56742 5.30352 7.56877ZM5.30352 3.16328C5.86991 4.04853 6.48435 5.17075 6.48435 5.60069C6.48435 6.25281 5.95582 6.78154 5.30352 6.78154C4.6514 6.78154 4.12268 6.25281 4.12268 5.60069C4.12268 5.17075 4.73712 4.04853 5.30352 3.16328Z" fill="#FF9900"/>
</g>
<defs>
<clipPath id="clip0">
<rect width="24" height="24" fill="white"/>
</clipPath>
</defs>
</svg>
