<svg width="24" height="24" viewBox="0 0 24 24" fill="none" xmlns="http://www.w3.org/2000/svg">
<path d="M23.6486 11.3699C23.3843 11.2972 23.1601 11.4599 23.0699 11.6985C22.9151 12.1081 22.3327 12.353 21.9114 12.408C21.2769 12.4908 20.6585 12.2129 20.0979 11.9528C19.4328 11.6444 18.7474 11.35 17.9997 11.3563C17.2474 11.3626 16.513 11.6632 15.9003 12.0857C15.2105 12.5613 14.6565 13.1819 14.1144 13.8136C13.949 14.0063 13.925 14.2896 14.1144 14.4789C14.2837 14.6482 14.6135 14.6726 14.7797 14.4789C15.6502 13.4645 16.7974 12.1264 18.2936 12.3106C19 12.3975 19.6327 12.7917 20.2811 13.0549C20.9476 13.3254 21.6786 13.4532 22.385 13.2676C23.0851 13.0836 23.716 12.6394 23.9771 11.9486C24.0671 11.7109 23.8774 11.4327 23.6486 11.3699Z" fill="#FF9900"/>
<path d="M9.6808 6.40109C10.1256 5.78506 10.5997 5.12708 10.7351 4.3617C10.8664 3.61925 10.6743 2.87154 10.2607 2.24642C9.78374 1.52548 9.0914 1.00667 8.40801 0.495732C8.20433 0.343482 7.88235 0.462685 7.76432 0.664482C7.62379 0.904763 7.72897 1.15554 7.93312 1.30817C8.98462 2.09431 10.2995 3.18809 9.66716 4.65195C9.10555 5.95198 7.64437 6.99767 7.82704 8.55692C7.91507 9.30823 8.3609 9.98754 9.12046 10.1883C9.70649 10.3431 9.95643 9.43573 9.37063 9.2809C8.89602 9.15551 8.70857 8.63703 8.75929 8.18234C8.83302 7.52215 9.30266 6.92483 9.6808 6.40109Z" fill="#FF9900"/>
<path d="M16.4339 7.54365C16.3576 6.91825 16.0036 6.35181 15.4746 6.00775C15.1799 5.81607 14.8592 5.7152 14.5339 5.68937C14.6948 5.15907 14.9959 4.67181 15.4361 4.33454C15.6375 4.18028 15.7446 3.92954 15.6049 3.69086C15.489 3.49267 15.1642 3.36657 14.9612 3.52206C14.2102 4.0975 13.7086 4.92282 13.5289 5.8352C12.9148 6.05856 12.3686 6.50964 12.0539 7.06993C11.208 8.57579 11.7425 10.3362 12.5936 11.7051C12.9127 12.2183 13.7271 11.7464 13.4061 11.2302C12.851 10.3373 12.383 9.26682 12.6254 8.19503C12.7431 7.6749 13.0415 7.1874 13.4676 6.8987C13.5087 7.41498 13.6537 7.92475 13.9061 8.37737C14.2563 9.00559 14.9212 9.52712 15.6558 9.17584C16.2489 8.89229 16.5095 8.16287 16.4339 7.54365ZM15.3867 8.19245C15.1306 8.55784 14.8616 8.1594 14.7186 7.90239C14.5238 7.55246 14.4185 7.15351 14.3997 6.7554C14.3978 6.71415 14.3976 6.67262 14.3973 6.63104C14.4205 6.63198 14.4437 6.63301 14.4671 6.63498C15.1566 6.69287 15.8259 7.56573 15.3867 8.19245Z" fill="#FF9900"/>
<path d="M18.3467 8.82834C17.7412 8.82834 17.7402 9.76931 18.3467 9.76931C18.9521 9.76926 18.9531 8.82834 18.3467 8.82834Z" fill="#FF9900"/>
<path d="M18.9334 7.46704C18.328 7.46704 18.327 8.40801 18.9334 8.40801C19.5389 8.40801 19.5399 7.46704 18.9334 7.46704Z" fill="#FF9900"/>
<path d="M19.8529 8.66754C19.2474 8.66754 19.2465 9.60851 19.8529 9.60851C20.4583 9.60851 20.4593 8.66754 19.8529 8.66754Z" fill="#FF9900"/>
<path d="M4.20276 4.81735C3.59732 4.81735 3.59629 5.75832 4.20276 5.75832C4.80824 5.75832 4.80923 4.81735 4.20276 4.81735Z" fill="#FF9900"/>
<path d="M4.78953 3.45612C4.18409 3.45612 4.18311 4.39708 4.78953 4.39708C5.39502 4.39704 5.39605 3.45612 4.78953 3.45612Z" fill="#FF9900"/>
<path d="M5.70896 4.65656C5.10353 4.65656 5.10254 5.59752 5.70896 5.59752C6.3144 5.59752 6.31538 4.65656 5.70896 4.65656Z" fill="#FF9900"/>
<path d="M13.2816 16.6138L7.03374 10.366C6.92677 10.2591 6.77494 10.21 6.62555 10.2343C6.47625 10.2586 6.34767 10.3531 6.28013 10.4885L5.71838 11.6134L0.0496902 22.9669C-0.0407316 23.1479 -0.00520037 23.3666 0.137956 23.5097C0.228237 23.6 0.348612 23.6475 0.470721 23.6475C0.542065 23.6475 0.613972 23.6313 0.680722 23.5979L13.1591 17.3675C13.2945 17.2999 13.389 17.1714 13.4133 17.022C13.4376 16.8727 13.3886 16.7209 13.2816 16.6138ZM1.52086 22.1267L3.55411 18.0545L4.2406 20.7688L1.52086 22.1267ZM9.28514 18.25L8.48405 16.2976C8.38538 16.0573 8.11064 15.9423 7.87022 16.0409C7.62985 16.1396 7.51491 16.4144 7.61353 16.6548L8.44102 18.6715L5.10235 20.3384L4.19832 16.7642L6.0976 12.9602L6.62021 14.2339C6.69488 14.4158 6.87047 14.5259 7.05563 14.5259C7.11511 14.5259 7.17558 14.5146 7.23403 14.4906C7.47441 14.392 7.58935 14.1171 7.49072 13.8768L6.65592 11.8422L6.83021 11.4932L12.1545 16.8174L9.28514 18.25Z" fill="#FF9900"/>
<path d="M22.0596 15.6278C21.0099 15.6278 20.156 16.4818 20.156 17.5314C20.156 18.5812 21.0099 19.4354 22.0596 19.4354C23.1095 19.4354 23.9636 18.5812 23.9636 17.5314C23.9636 16.4818 23.1095 15.6278 22.0596 15.6278ZM22.0596 18.4944C21.5288 18.4944 21.097 18.0624 21.097 17.5314C21.097 17.0006 21.5288 16.5688 22.0596 16.5688C22.5906 16.5688 23.0226 17.0006 23.0226 17.5314C23.0226 18.0624 22.5906 18.4944 22.0596 18.4944Z" fill="#FF9900"/>
<path d="M21.5548 2.38254L19.6625 0.490291C19.5743 0.402072 19.4546 0.352478 19.3298 0.352478C19.205 0.352478 19.0854 0.402072 18.9971 0.490337L17.1054 2.38259C16.9217 2.56629 16.9218 2.86418 17.1054 3.04793L18.9972 4.93971C19.0891 5.03159 19.2095 5.07753 19.3299 5.07753C19.4502 5.07753 19.5707 5.03159 19.6625 4.93976L21.5547 3.04798C21.643 2.95976 21.6926 2.84009 21.6926 2.71526C21.6925 2.59048 21.643 2.47081 21.5548 2.38254ZM19.33 3.94174L18.1035 2.71521L19.33 1.4884L20.5568 2.71521L19.33 3.94174Z" fill="#FF9900"/>
<path d="M7.51194 14.8072C6.90651 14.8072 6.90552 15.7482 7.51194 15.7482C8.11738 15.7482 8.11836 14.8072 7.51194 14.8072Z" fill="#FF9900"/>
</svg>
