<svg width="24" height="24" viewBox="0 0 24 24" fill="none" xmlns="http://www.w3.org/2000/svg">
<g clip-path="url(#clip0)">
<path d="M8.59413 12.8233V15.8774C8.59413 16.1232 8.79343 16.3226 9.03944 16.3226C9.28545 16.3226 9.48475 16.1232 9.48475 15.8774V13.1024L8.07418 11.6135C7.76609 11.2882 7.64453 10.8339 7.74914 10.3983L8.0886 8.98375H7.69186L7.98945 8.53237C8.05219 8.56105 8.1182 8.5837 8.18751 8.59775C8.2591 8.38642 8.38049 8.20188 8.53672 8.05618C8.74148 7.86544 9.00596 7.74227 9.29557 7.71177C9.33893 7.70722 9.3827 7.70428 9.42725 7.70404V6.24692C9.42725 6.00104 9.22791 5.80174 8.98207 5.80174C8.73623 5.80174 8.53689 6.00121 8.53689 6.24692V6.7842C8.48365 6.77461 8.42901 6.76874 8.37296 6.76874C8.31655 6.76874 8.26166 6.77457 8.20805 6.78428V5.51651C8.20805 5.27062 8.00875 5.07132 7.76274 5.07132C7.5169 5.07132 7.31756 5.27062 7.31756 5.51651V7.93396L7.10193 8.26115L6.8863 7.93396V5.51651C6.8863 5.27062 6.68696 5.07132 6.44112 5.07132C6.19528 5.07132 5.99593 5.27062 5.99593 5.51651V6.78428C5.94233 6.77469 5.88744 6.76874 5.83102 6.76874C5.71732 6.76874 5.60882 6.79027 5.50814 6.82792V4.75765C5.50814 4.51177 5.30879 4.31247 5.06283 4.31247C4.81686 4.31247 4.61764 4.51181 4.61764 4.75765V7.17511L4.34432 7.58984V5.51651C4.34432 5.27062 4.14497 5.07132 3.89913 5.07132C3.65329 5.07132 3.45395 5.27062 3.45395 5.51651V6.06907C3.35326 6.0315 3.24489 6.00988 3.13106 6.00988C2.62086 6.00988 2.20726 6.42345 2.20726 6.93365C2.20726 7.44385 2.62082 7.85746 3.13106 7.85746C3.24477 7.85746 3.35326 7.83593 3.45395 7.79827V8.06743C3.45395 8.12157 3.46494 8.17468 3.48391 8.22478H3.13106H2.33613L1.64419 7.17503V4.75774C1.64419 4.51185 1.44485 4.31255 1.19901 4.31255C0.953169 4.31255 0.753784 4.51181 0.753784 4.75765V7.30866C0.753784 7.39578 0.779327 7.48089 0.827272 7.55363L2.028 9.37537V11.3217C2.0223 11.3502 2.01916 11.3797 2.01916 11.41V15.1186C2.01916 15.3645 2.21846 15.5638 2.46434 15.5638C2.71022 15.5638 2.90965 15.3645 2.90965 15.1186V12.0644H3.13098H3.35231V15.1185C3.35231 15.3644 3.55165 15.5637 3.79762 15.5637C4.04359 15.5637 4.24293 15.3644 4.24293 15.1185V11.4099C4.24293 11.3797 4.23979 11.3502 4.23408 11.3216V9.38451L4.7282 10.1341V12.0805C4.7225 12.109 4.71936 12.1385 4.71936 12.1687V15.8774C4.71936 16.1232 4.91866 16.3226 5.16467 16.3226C5.41055 16.3226 5.60985 16.1232 5.60985 15.8774V12.8233H5.83118H6.05252V15.8774C6.05252 16.1232 6.25182 16.3226 6.4977 16.3226C6.74358 16.3226 6.94288 16.1232 6.94288 15.8774V12.1687C6.94288 12.1385 6.9397 12.1091 6.93404 12.0805V10.1341L7.10214 9.87904L7.27019 10.1341V12.0805C7.26449 12.109 7.26135 12.1385 7.26135 12.1687V15.8774C7.26135 16.1232 7.46065 16.3226 7.70653 16.3226C7.95241 16.3226 8.15184 16.1232 8.15184 15.8774V12.8233H8.37317H8.59413ZM5.83065 8.98371H5.03584L4.76379 8.57089L5.03472 8.15984C5.19534 8.43263 5.49115 8.61627 5.83061 8.61627C5.96758 8.61627 6.09699 8.58564 6.21396 8.53228L6.51155 8.98367H5.83065V8.98371Z" fill="#FF9900"/>
<path d="M10.4516 8.17408C10.4974 8.10088 10.5465 8.03004 10.6002 7.963C10.6503 7.90051 10.7028 7.8402 10.7592 7.78354C10.8582 7.68401 10.9667 7.59407 11.0829 7.51467C11.21 7.42792 11.3467 7.35455 11.4908 7.29537V6.5814C11.4908 6.33556 11.2914 6.13622 11.0456 6.13622C10.936 6.13622 10.8368 6.17747 10.7593 6.24306V5.51724C10.7593 5.27135 10.5599 5.07205 10.314 5.07205C10.068 5.07205 9.86877 5.27135 9.86877 5.51724V7.77531C9.97095 7.80982 10.066 7.85661 10.1538 7.91278C10.2668 7.9849 10.3667 8.07327 10.4516 8.17408Z" fill="#FF9900"/>
<path d="M10.1187 13.8111L9.77075 13.4438V16.1025L10.1187 15.6773V13.8111Z" fill="#FF9900"/>
<path d="M22.6991 4.65556C22.4533 4.65556 22.2539 4.8549 22.2539 5.10074V7.5182L21.562 8.56795H20.7673H20.4144C20.4334 8.51773 20.4444 8.46474 20.4444 8.4106V8.14144C20.5451 8.17902 20.6535 8.20063 20.7671 8.20063C21.2773 8.20063 21.6909 7.78707 21.6909 7.27687C21.6909 6.76667 21.2773 6.35306 20.7671 6.35306C20.6535 6.35306 20.5449 6.37459 20.4444 6.41225V5.85968C20.4444 5.6138 20.2451 5.41449 19.999 5.41449C19.7532 5.41449 19.5539 5.6138 19.5539 5.85968V7.93313L19.2804 7.51841V5.1007C19.2804 4.85482 19.0811 4.65552 18.8353 4.65552C18.5894 4.65552 18.3899 4.85486 18.3899 5.1007V7.17097C18.2892 7.1334 18.1808 7.11179 18.067 7.11179C18.0107 7.11179 17.9558 7.11761 17.9021 7.12733V5.8596C17.9021 5.61371 17.7028 5.41441 17.4569 5.41441C17.2111 5.41441 17.0118 5.61371 17.0118 5.8596V8.27706L16.7961 8.60424L16.7622 8.5529V8.65561V10.1709V10.2736L16.7961 10.2223L16.9642 10.4774V12.4237C16.9585 12.4523 16.9553 12.4817 16.9553 12.512V16.2207C16.9553 16.4665 17.1546 16.6658 17.4006 16.6658C17.6465 16.6658 17.8458 16.4665 17.8458 16.2207V13.1665H18.0671H18.2884V16.2207C18.2884 16.4665 18.4877 16.6658 18.7336 16.6658C18.9795 16.6658 19.1789 16.4665 19.1789 16.2207V12.512C19.1789 12.4817 19.1758 12.4523 19.17 12.4237V10.4774L19.6642 9.72772V11.6649C19.6585 11.6934 19.6554 11.7229 19.6554 11.7531V15.4618C19.6554 15.7077 19.8547 15.907 20.1006 15.907C20.3466 15.907 20.5458 15.7077 20.5458 15.4618V12.4076H20.7671H20.9884V15.4618C20.9884 15.7077 21.1878 15.907 21.4338 15.907C21.6797 15.907 21.8789 15.7077 21.8789 15.4618V11.7531C21.8789 11.7229 21.8758 11.6935 21.8701 11.6649V9.7185L23.0708 7.89676C23.1187 7.82402 23.1443 7.73891 23.1443 7.65179V5.10079C23.1444 4.85503 22.9451 4.65556 22.6991 4.65556ZM18.8621 9.32693H18.0674H17.3866L17.6842 8.87554C17.801 8.92902 17.9306 8.95953 18.0675 8.95953C18.407 8.95953 18.7029 8.77589 18.8634 8.5031L19.1343 8.91414L18.8621 9.32693Z" fill="#FF9900"/>
<path d="M16.6337 10.8792C16.6089 10.9303 16.5819 10.9804 16.5502 11.0283L14.802 13.6809V16.4407C14.8111 16.5037 14.8158 16.5672 14.8158 16.63V16.6514C14.8319 16.6532 14.8477 16.6563 14.8642 16.6563C15.1101 16.6563 15.3094 16.457 15.3094 16.2112V13.157H15.5307H15.7521V16.2112C15.7521 16.457 15.9514 16.6563 16.1973 16.6563C16.4433 16.6563 16.6425 16.457 16.6425 16.2112V12.5025C16.6425 12.4723 16.6394 12.4428 16.6336 12.4142V10.8792H16.6337Z" fill="#FF9900"/>
<path d="M14.039 5.85211C14.039 5.60622 13.8397 5.40692 13.5939 5.40692C13.3481 5.40692 13.1486 5.60622 13.1486 5.85211V5.91043C13.071 5.84467 12.9719 5.80354 12.8623 5.80354C12.6164 5.80354 12.4171 6.00301 12.4171 6.24873V7.13455C12.6745 7.14377 12.9208 7.19642 13.1486 7.28657C13.2027 7.30793 13.2555 7.33199 13.3075 7.35737C13.5899 7.49575 13.8395 7.69038 14.039 7.92956V5.85211H14.039Z" fill="#FF9900"/>
<path d="M4.41424 3.89871C4.67982 3.55015 4.69173 3.05992 4.47214 2.67644C4.23462 2.26172 3.19659 1.47178 3.76987 1.01226C4.08807 0.757156 3.63757 0.312714 3.32269 0.565045C2.94936 0.864288 2.91381 1.32365 3.04371 1.75871C3.21684 2.33835 4.35419 2.9415 3.86828 3.57946C3.62088 3.904 4.17052 4.21841 4.41424 3.89871Z" fill="#FF9900"/>
<path d="M20.9022 1.20026C21.3079 1.15917 21.1714 0.541221 20.7701 0.581809C20.2939 0.630002 20.0145 0.996119 19.8871 1.43196C19.7172 2.01259 20.344 3.13723 19.5894 3.40837C19.2054 3.54633 19.4957 4.10903 19.874 3.97309C20.2864 3.82487 20.5629 3.41986 20.5871 2.97872C20.613 2.50159 20.1712 1.27428 20.9022 1.20026Z" fill="#FF9900"/>
<path d="M8.50709 3.829C8.57499 4.26559 8.89042 4.64121 9.31549 4.7476C9.70552 4.84522 9.9385 4.25649 9.54277 4.15734C8.76486 3.96246 9.27669 2.78115 9.05007 2.22024C8.87996 1.79919 8.56544 1.46263 8.08689 1.46201C7.68347 1.46151 7.60899 2.08996 8.01683 2.09046C8.7513 2.09161 8.43373 3.35691 8.50709 3.829Z" fill="#FF9900"/>
<path d="M16.25 1.56116C16.4359 1.1468 16.461 0.686822 16.13 0.341164C15.851 0.0496503 15.346 0.431226 15.628 0.725798C16.1361 1.2565 15.0034 1.90355 14.7135 2.28347C14.4455 2.63479 14.393 3.12238 14.6107 3.5028C14.8103 3.85173 15.3964 3.61221 15.1939 3.25795C14.7958 2.56192 16.0025 2.11323 16.25 1.56116Z" fill="#FF9900"/>
<path d="M10.5407 2.22715C10.71 2.6353 11.1055 2.92545 11.5436 2.92806C11.9457 2.93058 12.0326 2.30341 11.6245 2.30076C10.8226 2.29568 11.0401 1.02675 10.687 0.535562C10.4219 0.166758 10.0367 -0.085697 9.57164 0.0271389C9.17945 0.122244 9.25596 0.750446 9.65232 0.654308C10.3666 0.481293 10.3575 1.78577 10.5407 2.22715Z" fill="#FF9900"/>
<path d="M6.04988 3.95635C6.62079 3.95635 6.62079 3.07101 6.04988 3.07101C5.47898 3.07101 5.47898 3.95635 6.04988 3.95635Z" fill="#FF9900"/>
<path d="M1.83543 2.69035C2.40632 2.69035 2.40632 1.80502 1.83543 1.80502C1.26449 1.80502 1.26449 2.69035 1.83543 2.69035Z" fill="#FF9900"/>
<path d="M13.7274 0.669739C13.1565 0.669739 13.1565 1.55507 13.7274 1.55507C14.2983 1.55507 14.2983 0.669739 13.7274 0.669739Z" fill="#FF9900"/>
<path d="M12.8779 3.82563C13.4488 3.82563 13.4488 2.94031 12.8779 2.94031C12.307 2.94031 12.307 3.82563 12.8779 3.82563Z" fill="#FF9900"/>
<path d="M17.7783 2.50251C18.3492 2.50251 18.3492 1.61719 17.7783 1.61719C17.2075 1.61719 17.2075 2.50251 17.7783 2.50251Z" fill="#FF9900"/>
<path d="M22.8423 2.57278C22.2715 2.57278 22.2715 3.45811 22.8423 3.45811C23.4131 3.45811 23.4132 2.57278 22.8423 2.57278Z" fill="#FF9900"/>
<path d="M14.3854 13.1139L15.9888 10.6814C16.0628 10.5692 16.1021 10.4378 16.1021 10.3035V9.31863V9.20328V8.7247V7.3302V5.45672C16.1021 5.4399 16.1008 5.42332 16.0996 5.40679C16.0739 5.05088 15.7776 4.76987 15.415 4.76987C15.0356 4.76987 14.7282 5.07746 14.7282 5.45676V6.16729V7.51591V8.53883V9.31855V10.0974L14.3942 10.6039L13.6608 11.717H12.0049H11.8533H10.9231L9.7751 10.5051L10.0028 9.5567L10.0921 9.18472C10.0923 9.18344 10.0924 9.18207 10.0928 9.18079C10.097 9.16269 10.1003 9.14463 10.1029 9.12665C10.1038 9.11768 10.1053 9.10896 10.1064 9.09995C10.1152 9.02117 10.1101 8.94338 10.0927 8.86915C10.0763 8.79868 10.0493 8.73143 10.0124 8.6701C9.92067 8.51796 9.77067 8.40111 9.58439 8.35631C9.57996 8.35531 9.57567 8.3549 9.57124 8.35391C9.52152 8.34292 9.47196 8.33696 9.42303 8.33696C9.42038 8.33696 9.41786 8.33762 9.41521 8.33762C9.10824 8.34114 8.83102 8.55172 8.75613 8.86374L8.72715 8.98451L8.68239 9.17116L8.35231 10.5466C8.29804 10.7726 8.36177 11.0108 8.52152 11.1795L9.47275 12.1837L9.79907 12.5282L10.7704 13.5537V13.5546V15.8976L10.6806 16.0073L9.92679 16.9285L8.4885 18.6866C8.25844 18.9681 8.28713 19.3798 8.55426 19.6266L10.3044 21.2422C10.4365 21.3641 10.6036 21.4243 10.7701 21.4243C10.9552 21.4243 11.1397 21.3499 11.275 21.2033C11.5324 20.9245 11.5149 20.49 11.2362 20.2325L9.96155 19.0559L11.1195 17.641H12.776V22.3531C12.776 22.7324 13.0837 23.04 13.4629 23.04C13.8423 23.04 14.1499 22.7324 14.1499 22.3531V16.6312C14.1499 16.5845 14.1449 16.5389 14.136 16.4948V13.4924L14.3854 13.1139Z" fill="#FF9900"/>
<path d="M10.7632 9.72051C10.8683 10.1604 11.1554 10.5293 11.5421 10.7414C11.6828 10.8186 11.8365 10.8746 11.9991 10.9061C12.0975 10.9252 12.1988 10.936 12.3026 10.936C12.9249 10.936 13.4618 10.5762 13.7209 10.0543C13.7814 9.9325 13.8279 9.80264 13.8555 9.6655C13.8759 9.56407 13.8869 9.45909 13.8869 9.35158C13.8869 9.22775 13.8712 9.10789 13.8443 8.99229C13.7609 8.6327 13.5554 8.32068 13.2732 8.10138C13.2226 8.06203 13.1695 8.02599 13.1143 7.99296C13.0184 7.93555 12.9161 7.88761 12.8084 7.85132C12.6737 7.8059 12.5309 7.77887 12.3828 7.77138C12.3561 7.76998 12.3297 7.76733 12.3027 7.76733C12.0725 7.76733 11.8543 7.81755 11.657 7.90584C11.5898 7.9358 11.5256 7.97073 11.4637 8.00941C11.0626 8.26071 10.7815 8.6854 10.728 9.17944C10.727 9.1884 10.7269 9.19737 10.7256 9.20634C10.7217 9.24896 10.7195 9.29211 10.719 9.33559C10.719 9.34088 10.7183 9.34609 10.7183 9.35154C10.7183 9.40275 10.7212 9.45322 10.726 9.50319C10.733 9.57746 10.7463 9.64971 10.7632 9.72051Z" fill="#FF9900"/>
</g>
<defs>
<clipPath id="clip0">
<rect width="24" height="23.04" fill="white"/>
</clipPath>
</defs>
</svg>
