<svg width="24" height="22" viewBox="0 0 24 22" fill="none" xmlns="http://www.w3.org/2000/svg">
<path d="M5.21852 4.77125C6.25237 4.32564 7.36633 4.09587 8.49211 4.09611C9.6154 4.09563 10.7268 4.3254 11.7578 4.77125C12.3422 4.5186 12.9541 4.33496 13.581 4.22414L11.7059 2.66164C11.5779 2.55495 11.5332 2.378 11.5952 2.22334L12.3641 0.300977C12.4225 0.154877 12.564 0.059095 12.7213 0.0591431H17.7195C17.8768 0.059095 18.0183 0.154877 18.0766 0.300977L18.8456 2.22334C18.9075 2.378 18.8628 2.55495 18.7349 2.66164L16.7833 4.28796C21.2438 5.25419 24.0765 9.65348 23.1103 14.114C22.144 18.5746 17.7447 21.4073 13.2842 20.4411C12.7624 20.328 12.2527 20.1647 11.7624 19.9533C7.57 21.7604 2.70647 19.8267 0.899395 15.6342C-0.907629 11.4419 1.02608 6.57832 5.21852 4.77125ZM12.7905 1.30599L12.5214 1.98151H13.1958L12.7905 1.30599ZM13.4003 0.828089L13.8747 1.61895L14.3492 0.828089H13.4003ZM15.0731 1.11568L14.5537 1.98151H15.766L15.0731 1.11568ZM15.8282 0.828089L16.5203 1.69392L17.0405 0.828089H15.8282ZM17.6503 1.30599L17.245 1.98151H17.9205L17.6503 1.30599ZM17.4265 2.75045H13.0143L14.3984 3.90387H16.0424L17.4265 2.75045ZM15.0282 19.8595C19.1687 19.8555 22.5221 16.4956 22.5181 12.355C22.5141 8.21444 19.1542 4.86107 15.0136 4.86506C14.2179 4.86583 13.4274 4.99328 12.6717 5.24261C12.9625 5.41423 13.2427 5.60334 13.5106 5.80894C17.1374 4.96343 20.7629 7.21808 21.6084 10.8448C22.4539 14.4715 20.1992 18.097 16.5725 18.9425C12.9458 19.788 9.32027 17.5334 8.47476 13.9067C7.86605 11.2956 8.86202 8.57205 11.0116 6.96966C10.7417 6.84197 10.4625 6.73489 10.1765 6.6494C7.02006 9.3273 6.63218 14.0569 9.31003 17.2133C10.7347 18.8927 12.8259 19.8604 15.0282 19.8595ZM14.2627 6.45447C17.5275 9.63209 17.5982 14.8548 14.4206 18.1196C14.3718 18.1698 14.3224 18.2193 14.2723 18.2682C17.5353 18.6885 20.5213 16.3841 20.9416 13.1211C21.362 9.85806 19.0576 6.8721 15.7946 6.45173C15.5405 6.419 15.2845 6.40266 15.0282 6.4029C14.7721 6.40391 14.5165 6.42112 14.2627 6.45447ZM11.7601 17.3397C14.5091 15.541 15.2794 11.8544 13.4807 9.10551C13.0319 8.41951 12.4461 7.83372 11.7601 7.38489C9.0112 9.18394 8.24115 12.8708 10.0402 15.6197C10.4889 16.3054 11.0745 16.8909 11.7601 17.3397ZM9.24876 6.45639H9.24799C5.98472 6.03967 3.0015 8.34723 2.58478 11.6105C2.16806 14.8738 4.47562 17.857 7.73888 18.2737C8.24427 18.3382 8.75586 18.3377 9.26111 18.272C5.99501 15.0957 5.92225 9.87306 9.09857 6.60696C9.14793 6.55611 9.19801 6.50594 9.24876 6.45639ZM2.78043 17.2193C4.20471 18.8947 6.29302 19.8601 8.49206 19.8596C9.29273 19.861 10.0884 19.7335 10.8485 19.482C10.5572 19.3101 10.2766 19.1206 10.0084 18.9145C6.38011 19.7607 2.75275 17.5054 1.90652 13.8771C1.0603 10.2488 3.31562 6.62143 6.94394 5.7752C10.5723 4.92898 14.1996 7.18429 15.0458 10.8126C15.6552 13.4252 14.6585 16.1505 12.5075 17.7537C12.7778 17.882 13.0575 17.9895 13.3442 18.0752C16.4976 15.3944 16.8808 10.6649 14.2 7.51148C11.5193 4.35803 6.78976 3.97486 3.63631 6.6556C0.482914 9.33629 0.0996914 14.0658 2.78043 17.2193Z" fill="#FF9900"/>
</svg>
