<svg width="16" height="16" viewBox="0 0 16 16" fill="none" xmlns="http://www.w3.org/2000/svg">
<path d="M11.3659 0H4.63407C3.98981 0 3.46973 0.522411 3.46973 1.16551V14.8357C3.46973 15.4782 3.98981 16 4.63407 16H11.3659C12.009 16 12.5303 15.4782 12.5303 14.8357V1.16551C12.5303 0.522411 12.009 0 11.3659 0ZM6.33891 0.70782H9.66228C9.74624 0.70782 9.81445 0.833175 9.81445 0.988266C9.81445 1.14336 9.74624 1.2693 9.66228 1.2693H6.33891C6.25436 1.2693 6.18731 1.14336 6.18731 0.988266C6.18731 0.833175 6.25436 0.70782 6.33891 0.70782ZM8.00059 14.8496C7.59071 14.8496 7.25721 14.5161 7.25721 14.1057C7.25721 13.6952 7.59071 13.3629 8.00059 13.3629C8.40931 13.3629 8.74281 13.6952 8.74281 14.1057C8.74281 14.5161 8.40931 14.8496 8.00059 14.8496ZM11.6581 12.3023H4.34255V1.96662H11.6581V12.3023Z" fill="#FF9900"/>
</svg>
